# xmcd
#
# Track frame offsets: 
#        150
#        4154
#        55976
#        105038
#        160479
#        223364
#
# Disc length: 3853 seconds
#
# Revision: 0
# Processed by: cddbd v1.5PL3 Copyright (c) Steve Scherf et al.
# Submitted via: ExactAudioCopy v0.95a5
#
DISCID=4b0f0b06
DTITLE=Randolph, Robert - 2001-09-28 Boston, MA [CD1)
DYEAR=2001
DGENRE=Blues
TTITLE0=Intro
TTITLE1=Calypso
TTITLE2=Run for Your Life
TTITLE3=The March
TTITLE4=Press On
TTITLE5=Shake Your Hips
EXTD=
EXTT0=
EXTT1=
EXTT2=
EXTT3=
EXTT4=
EXTT5=
PLAYORDER=
